<svg xmlns="http://www.w3.org/2000/svg" xmlns:xlink="http://www.w3.org/1999/xlink" width="97.868" height="111.223" viewBox="0 0 97.868 111.223"><defs><clipPath id="a"><rect width="69.257" height="102.223" fill="#fff" stroke="#fff" stroke-width="2"/></clipPath><clipPath id="b"><rect width="69.257" height="102.223" fill="#ffa225" stroke="#ffa225" stroke-width="2"/></clipPath></defs><g transform="translate(-37.132 -29.75)"><g transform="translate(-15.848 -7.614)"><g transform="translate(52.98 37.364)"><g transform="translate(0 7.273)" fill="none" stroke="#fff" stroke-width="2"><rect width="88.735" height="88.735" stroke="none"/><rect x="1" y="1" width="86.735" height="86.735" fill="none"/></g><g transform="translate(10.183)"><g transform="translate(0 0)" clip-path="url(#a)"><path d="M47.548,71.784,28.583,41.275q-3.252,0-10.283-.484V71.784H8.6V.728q.531,0,7.541-.363T26.353,0Q51.961,0,51.961,20.372a19.274,19.274,0,0,1-4.122,12.052,17.145,17.145,0,0,1-9.8,6.67l20.612,32.69ZM18.3,9.458V32.545a49.26,49.26,0,0,0,6.791.486q8.73,0,12.706-2.814t3.978-10.039q0-5.967-4.267-8.586T24.023,8.972q-1.454,0-5.722.486" transform="translate(9.971 0.001)" fill="#fff" stroke="#fff" stroke-width="2"/><path d="M14.937,54.055,29.822,77.248l-7.469,4.794L0,47.214,2.2,45.8l52.651-.218L39.839,22.2l7.469-4.794,21.948,34.2-2.371,1.522Z" transform="translate(0 20.181)" fill="#fff" stroke="#fff" stroke-width="2"/></g></g></g></g><g transform="translate(-6.715 1.386)"><g transform="translate(52.98 37.364)"><g transform="translate(0 7.273)" fill="none" stroke="#ffa225" stroke-width="2"><rect width="88.735" height="88.735" stroke="none"/><rect x="1" y="1" width="86.735" height="86.735" fill="none"/></g><g transform="translate(10.183)"><g transform="translate(0 0)" clip-path="url(#b)"><path d="M47.548,71.784,28.583,41.275q-3.252,0-10.283-.484V71.784H8.6V.728q.531,0,7.541-.363T26.353,0Q51.961,0,51.961,20.372a19.274,19.274,0,0,1-4.122,12.052,17.145,17.145,0,0,1-9.8,6.67l20.612,32.69ZM18.3,9.458V32.545a49.26,49.26,0,0,0,6.791.486q8.73,0,12.706-2.814t3.978-10.039q0-5.967-4.267-8.586T24.023,8.972q-1.454,0-5.722.486" transform="translate(9.971 0.001)" fill="#ffa225" stroke="#ffa225" stroke-width="2"/><path d="M14.937,54.055,29.822,77.248l-7.469,4.794L0,47.214,2.2,45.8l52.651-.218L39.839,22.2l7.469-4.794,21.948,34.2-2.371,1.522Z" transform="translate(0 20.181)" fill="#ffa225" stroke="#ffa225" stroke-width="2"/></g></g></g></g></g></svg>